<mxfile host="drawio-plugin" modified="2022-09-13T08:49:39.535Z" agent="5.0 (Macintosh; Intel Mac OS X 11_6_8) AppleWebKit/537.36 (KHTML, like Gecko) Chrome/89.0.4389.114 Safari/537.36" etag="LW_ech_HdB11CZ6AwiJG" version="15.5.4" type="embed" pages="5"><diagram id="4JP8P6TYmhdr9SVVH32g" name="ML In Process"><mxGraphModel dx="971" dy="718" grid="1" gridSize="10" guides="1" tooltips="1" connect="1" arrows="1" fold="1" page="1" pageScale="1" pageWidth="1169" pageHeight="827" math="0" shadow="0"><root><mxCell id="pkODhqx5-SrbD-c5_GGv-0"/><mxCell id="pkODhqx5-SrbD-c5_GGv-1" parent="pkODhqx5-SrbD-c5_GGv-0"/><mxCell id="UCNFDzZq1QyYswXOjzoX-0" value="" style="rounded=0;whiteSpace=wrap;html=1;fillColor=#f5f5f5;fontColor=#333333;strokeColor=#666666;" parent="pkODhqx5-SrbD-c5_GGv-1" vertex="1"><mxGeometry x="160" y="40" width="330" height="540" as="geometry"/></mxCell><mxCell id="UCNFDzZq1QyYswXOjzoX-1" style="edgeStyle=orthogonalEdgeStyle;rounded=0;orthogonalLoop=1;jettySize=auto;html=1;entryX=0;entryY=0.5;entryDx=0;entryDy=0;entryPerimeter=0;" parent="pkODhqx5-SrbD-c5_GGv-1" source="UCNFDzZq1QyYswXOjzoX-2" target="UCNFDzZq1QyYswXOjzoX-5" edge="1"><mxGeometry relative="1" as="geometry"/></mxCell><mxCell id="UCNFDzZq1QyYswXOjzoX-2" value="Bridge Container&lt;br&gt;(Java)" style="rounded=1;whiteSpace=wrap;html=1;fillColor=#dae8fc;strokeColor=#6c8ebf;" parent="pkODhqx5-SrbD-c5_GGv-1" vertex="1"><mxGeometry x="210" y="505" width="240" height="60" as="geometry"/></mxCell><mxCell id="UCNFDzZq1QyYswXOjzoX-3" style="edgeStyle=orthogonalEdgeStyle;rounded=0;orthogonalLoop=1;jettySize=auto;html=1;" parent="pkODhqx5-SrbD-c5_GGv-1" source="UCNFDzZq1QyYswXOjzoX-4" target="UCNFDzZq1QyYswXOjzoX-2" edge="1"><mxGeometry relative="1" as="geometry"/></mxCell><mxCell id="UCNFDzZq1QyYswXOjzoX-4" value="BrainImageEvent" style="verticalLabelPosition=bottom;html=1;verticalAlign=top;align=center;strokeColor=none;fillColor=#00BEF2;shape=mxgraph.azure.queue_generic;pointerEvents=1;" parent="pkODhqx5-SrbD-c5_GGv-1" vertex="1"><mxGeometry x="30" y="527.5" width="50" height="15" as="geometry"/></mxCell><mxCell id="UCNFDzZq1QyYswXOjzoX-5" value="BrainClassificationEvent" style="verticalLabelPosition=bottom;html=1;verticalAlign=top;align=center;strokeColor=none;fillColor=#00BEF2;shape=mxgraph.azure.queue_generic;pointerEvents=1;" parent="pkODhqx5-SrbD-c5_GGv-1" vertex="1"><mxGeometry x="600" y="527.5" width="50" height="15" as="geometry"/></mxCell><mxCell id="UCNFDzZq1QyYswXOjzoX-12" value="Schema Config" style="sketch=0;points=[[0,0,0],[0.25,0,0],[0.5,0,0],[0.75,0,0],[1,0,0],[0,1,0],[0.25,1,0],[0.5,1,0],[0.75,1,0],[1,1,0],[0,0.25,0],[0,0.5,0],[0,0.75,0],[1,0.25,0],[1,0.5,0],[1,0.75,0]];points=[[0,0,0],[0.25,0,0],[0.5,0,0],[0.75,0,0],[1,0,0],[0,1,0],[0.25,1,0],[0.5,1,0],[0.75,1,0],[1,1,0],[0,0.25,0],[0,0.5,0],[0,0.75,0],[1,0.25,0],[1,0.5,0],[1,0.75,0]];outlineConnect=0;fontColor=#232F3E;gradientColor=#F34482;gradientDirection=north;fillColor=#BC1356;strokeColor=#ffffff;dashed=0;verticalLabelPosition=bottom;verticalAlign=top;align=center;html=1;fontSize=12;fontStyle=0;aspect=fixed;shape=mxgraph.aws4.resourceIcon;resIcon=mxgraph.aws4.app_config;" parent="pkODhqx5-SrbD-c5_GGv-1" vertex="1"><mxGeometry x="291" y="660" width="78" height="78" as="geometry"/></mxCell><mxCell id="UCNFDzZq1QyYswXOjzoX-13" value="" style="shape=flexArrow;endArrow=classic;html=1;rounded=0;" parent="pkODhqx5-SrbD-c5_GGv-1" edge="1"><mxGeometry width="50" height="50" relative="1" as="geometry"><mxPoint x="335" y="655" as="sourcePoint"/><mxPoint x="335" y="585" as="targetPoint"/></mxGeometry></mxCell><mxCell id="UCNFDzZq1QyYswXOjzoX-16" value="" style="shape=flexArrow;endArrow=classic;html=1;rounded=0;" parent="pkODhqx5-SrbD-c5_GGv-1" edge="1"><mxGeometry width="50" height="50" relative="1" as="geometry"><mxPoint x="329.5" y="493" as="sourcePoint"/><mxPoint x="329.5" y="443" as="targetPoint"/></mxGeometry></mxCell><mxCell id="UCNFDzZq1QyYswXOjzoX-17" value="Rest" style="edgeLabel;html=1;align=center;verticalAlign=middle;resizable=0;points=[];" parent="UCNFDzZq1QyYswXOjzoX-16" vertex="1" connectable="0"><mxGeometry x="-0.24" y="-2" relative="1" as="geometry"><mxPoint as="offset"/></mxGeometry></mxCell><mxCell id="UCNFDzZq1QyYswXOjzoX-20" value="Pod" style="text;html=1;strokeColor=none;fillColor=none;align=center;verticalAlign=middle;whiteSpace=wrap;rounded=0;" parent="pkODhqx5-SrbD-c5_GGv-1" vertex="1"><mxGeometry x="165" y="50" width="60" height="30" as="geometry"/></mxCell><mxCell id="sIdaTJnpg9QsMD5v8c7R-0" value="" style="rounded=0;whiteSpace=wrap;html=1;fillColor=#ffe6cc;strokeColor=#d79b00;" parent="pkODhqx5-SrbD-c5_GGv-1" vertex="1"><mxGeometry x="820" y="60" width="300" height="380" as="geometry"/></mxCell><mxCell id="sIdaTJnpg9QsMD5v8c7R-1" value="Pre Processor DAG (Python)" style="rounded=0;whiteSpace=wrap;html=1;fillColor=#d5e8d4;strokeColor=#82b366;" parent="pkODhqx5-SrbD-c5_GGv-1" vertex="1"><mxGeometry x="830" y="200" width="280" height="220" as="geometry"/></mxCell><mxCell id="sIdaTJnpg9QsMD5v8c7R-2" value="Pre Processor 1" style="rounded=1;whiteSpace=wrap;html=1;fillColor=#fff2cc;strokeColor=#d6b656;" parent="pkODhqx5-SrbD-c5_GGv-1" vertex="1"><mxGeometry x="840" y="355" width="260" height="30" as="geometry"/></mxCell><mxCell id="sIdaTJnpg9QsMD5v8c7R-3" value="Pre Processor 2" style="rounded=1;whiteSpace=wrap;html=1;fillColor=#fff2cc;strokeColor=#d6b656;" parent="pkODhqx5-SrbD-c5_GGv-1" vertex="1"><mxGeometry x="840" y="322" width="260" height="30" as="geometry"/></mxCell><mxCell id="sIdaTJnpg9QsMD5v8c7R-4" value="Pre Processor n" style="rounded=1;whiteSpace=wrap;html=1;fillColor=#fff2cc;strokeColor=#d6b656;" parent="pkODhqx5-SrbD-c5_GGv-1" vertex="1"><mxGeometry x="840" y="239" width="260" height="30" as="geometry"/></mxCell><mxCell id="sIdaTJnpg9QsMD5v8c7R-5" value="ML Flow Generated Container&lt;br&gt;(Python)" style="rounded=1;whiteSpace=wrap;html=1;fillColor=#e1d5e7;strokeColor=#9673a6;" parent="pkODhqx5-SrbD-c5_GGv-1" vertex="1"><mxGeometry x="835" y="80" width="280" height="60" as="geometry"/></mxCell><mxCell id="sIdaTJnpg9QsMD5v8c7R-7" value="Array Convertor" style="rounded=1;whiteSpace=wrap;html=1;fillColor=#fff2cc;strokeColor=#d6b656;" parent="pkODhqx5-SrbD-c5_GGv-1" vertex="1"><mxGeometry x="840" y="205" width="260" height="30" as="geometry"/></mxCell><mxCell id="sIdaTJnpg9QsMD5v8c7R-8" value="Image Decoder" style="rounded=1;whiteSpace=wrap;html=1;fillColor=#fff2cc;strokeColor=#d6b656;" parent="pkODhqx5-SrbD-c5_GGv-1" vertex="1"><mxGeometry x="840" y="387" width="260" height="30" as="geometry"/></mxCell><mxCell id="sIdaTJnpg9QsMD5v8c7R-9" value="" style="shape=flexArrow;endArrow=classic;html=1;rounded=0;" parent="pkODhqx5-SrbD-c5_GGv-1" edge="1"><mxGeometry width="50" height="50" relative="1" as="geometry"><mxPoint x="984" y="195" as="sourcePoint"/><mxPoint x="984" y="145" as="targetPoint"/></mxGeometry></mxCell><mxCell id="sIdaTJnpg9QsMD5v8c7R-11" value="ML Flow Container" style="rounded=0;whiteSpace=wrap;html=1;fillColor=#ffe6cc;strokeColor=#d79b00;" parent="pkODhqx5-SrbD-c5_GGv-1" vertex="1"><mxGeometry x="170" y="80" width="310" height="360" as="geometry"/></mxCell><mxCell id="sIdaTJnpg9QsMD5v8c7R-13" value="ML Flow Contaner" style="text;html=1;strokeColor=none;fillColor=none;align=center;verticalAlign=middle;whiteSpace=wrap;rounded=0;fontSize=21;fontStyle=1" parent="pkODhqx5-SrbD-c5_GGv-1" vertex="1"><mxGeometry x="820" y="20" width="200" height="30" as="geometry"/></mxCell><mxCell id="sIdaTJnpg9QsMD5v8c7R-16" style="edgeStyle=orthogonalEdgeStyle;rounded=0;orthogonalLoop=1;jettySize=auto;html=1;fontSize=21;" parent="pkODhqx5-SrbD-c5_GGv-1" source="sIdaTJnpg9QsMD5v8c7R-14" target="sIdaTJnpg9QsMD5v8c7R-11" edge="1"><mxGeometry relative="1" as="geometry"/></mxCell><mxCell id="sIdaTJnpg9QsMD5v8c7R-14" value="" style="strokeColor=#dddddd;shadow=1;strokeWidth=1;rounded=1;absoluteArcSize=1;arcSize=2;fontSize=21;" parent="pkODhqx5-SrbD-c5_GGv-1" vertex="1"><mxGeometry x="580" y="230" width="120" height="60" as="geometry"/></mxCell><mxCell id="sIdaTJnpg9QsMD5v8c7R-15" value="Container&#10;Registry" style="sketch=0;dashed=0;connectable=0;html=1;fillColor=#5184F3;strokeColor=none;shape=mxgraph.gcp2.hexIcon;prIcon=container_registry;part=1;labelPosition=right;verticalLabelPosition=middle;align=left;verticalAlign=middle;spacingLeft=5;fontColor=#999999;fontSize=12;" parent="sIdaTJnpg9QsMD5v8c7R-14" vertex="1"><mxGeometry y="0.5" width="44" height="39" relative="1" as="geometry"><mxPoint x="4" y="-19" as="offset"/></mxGeometry></mxCell></root></mxGraphModel></diagram><diagram id="MiwoKP8BNFaqeRX3wZGP" name="ML Out of Process"><mxGraphModel dx="1235" dy="1573" grid="1" gridSize="10" guides="1" tooltips="1" connect="1" arrows="1" fold="1" page="1" pageScale="1" pageWidth="1169" pageHeight="827" math="0" shadow="0"><root><mxCell id="0"/><mxCell id="1" parent="0"/><mxCell id="BqRsmMDiqOokHkiWsKRs-17" value="" style="rounded=0;whiteSpace=wrap;html=1;fillColor=#f5f5f5;fontColor=#333333;strokeColor=#666666;" parent="1" vertex="1"><mxGeometry x="394" y="-49" width="350" height="417" as="geometry"/></mxCell><mxCell id="15" value="" style="rounded=0;whiteSpace=wrap;html=1;fillColor=#f5f5f5;fontColor=#333333;strokeColor=#666666;" parent="1" vertex="1"><mxGeometry x="405" y="470" width="330" height="159" as="geometry"/></mxCell><mxCell id="9" style="edgeStyle=orthogonalEdgeStyle;rounded=0;orthogonalLoop=1;jettySize=auto;html=1;entryX=0;entryY=0.5;entryDx=0;entryDy=0;entryPerimeter=0;" parent="1" source="3" target="8" edge="1"><mxGeometry relative="1" as="geometry"/></mxCell><mxCell id="3" value="Event to Primitive Converter&lt;br&gt;(Java)" style="rounded=1;whiteSpace=wrap;html=1;fillColor=#dae8fc;strokeColor=#6c8ebf;" parent="1" vertex="1"><mxGeometry x="455" y="554" width="240" height="60" as="geometry"/></mxCell><mxCell id="5" style="edgeStyle=orthogonalEdgeStyle;rounded=0;orthogonalLoop=1;jettySize=auto;html=1;" parent="1" source="4" target="3" edge="1"><mxGeometry relative="1" as="geometry"/></mxCell><mxCell id="4" value="BrainImageEvent" style="verticalLabelPosition=bottom;html=1;verticalAlign=top;align=center;strokeColor=none;fillColor=#00BEF2;shape=mxgraph.azure.queue_generic;pointerEvents=1;" parent="1" vertex="1"><mxGeometry x="275" y="576.5" width="50" height="15" as="geometry"/></mxCell><mxCell id="8" value="BrainClassificationEvent" style="verticalLabelPosition=bottom;html=1;verticalAlign=top;align=center;strokeColor=none;fillColor=#00BEF2;shape=mxgraph.azure.queue_generic;pointerEvents=1;" parent="1" vertex="1"><mxGeometry x="845" y="576.5" width="50" height="15" as="geometry"/></mxCell><mxCell id="10" value="Pre Processor DAG (Python)" style="rounded=0;whiteSpace=wrap;html=1;fillColor=#d5e8d4;strokeColor=#82b366;" parent="1" vertex="1"><mxGeometry x="430" y="101" width="280" height="220" as="geometry"/></mxCell><mxCell id="11" value="Pre Processor 1" style="rounded=1;whiteSpace=wrap;html=1;fillColor=#fff2cc;strokeColor=#d6b656;" parent="1" vertex="1"><mxGeometry x="440" y="256" width="260" height="30" as="geometry"/></mxCell><mxCell id="12" value="Pre Processor 2" style="rounded=1;whiteSpace=wrap;html=1;fillColor=#fff2cc;strokeColor=#d6b656;" parent="1" vertex="1"><mxGeometry x="440" y="223" width="260" height="30" as="geometry"/></mxCell><mxCell id="13" value="Pre Processor n" style="rounded=1;whiteSpace=wrap;html=1;fillColor=#fff2cc;strokeColor=#d6b656;" parent="1" vertex="1"><mxGeometry x="440" y="140" width="260" height="30" as="geometry"/></mxCell><mxCell id="14" value="ML Flow Generated Container&lt;br&gt;(Python)" style="rounded=1;whiteSpace=wrap;html=1;fillColor=#e1d5e7;strokeColor=#9673a6;" parent="1" vertex="1"><mxGeometry x="435" y="-19" width="280" height="60" as="geometry"/></mxCell><mxCell id="16" value="Local Storage" style="shape=cylinder3;whiteSpace=wrap;html=1;boundedLbl=1;backgroundOutline=1;size=15;fillColor=#f8cecc;strokeColor=#b85450;" parent="1" vertex="1"><mxGeometry x="720" y="51" width="60" height="80" as="geometry"/></mxCell><mxCell id="MDADAvPTw3tYlWCLtkze-16" value="Schema Config" style="sketch=0;points=[[0,0,0],[0.25,0,0],[0.5,0,0],[0.75,0,0],[1,0,0],[0,1,0],[0.25,1,0],[0.5,1,0],[0.75,1,0],[1,1,0],[0,0.25,0],[0,0.5,0],[0,0.75,0],[1,0.25,0],[1,0.5,0],[1,0.75,0]];points=[[0,0,0],[0.25,0,0],[0.5,0,0],[0.75,0,0],[1,0,0],[0,1,0],[0.25,1,0],[0.5,1,0],[0.75,1,0],[1,1,0],[0,0.25,0],[0,0.5,0],[0,0.75,0],[1,0.25,0],[1,0.5,0],[1,0.75,0]];outlineConnect=0;fontColor=#232F3E;gradientColor=#F34482;gradientDirection=north;fillColor=#BC1356;strokeColor=#ffffff;dashed=0;verticalLabelPosition=bottom;verticalAlign=top;align=center;html=1;fontSize=12;fontStyle=0;aspect=fixed;shape=mxgraph.aws4.resourceIcon;resIcon=mxgraph.aws4.app_config;" parent="1" vertex="1"><mxGeometry x="536" y="709" width="78" height="78" as="geometry"/></mxCell><mxCell id="MDADAvPTw3tYlWCLtkze-18" value="" style="shape=flexArrow;endArrow=classic;html=1;rounded=0;" parent="1" edge="1"><mxGeometry width="50" height="50" relative="1" as="geometry"><mxPoint x="580" y="704" as="sourcePoint"/><mxPoint x="580" y="634" as="targetPoint"/></mxGeometry></mxCell><mxCell id="_86zWBjJLlqJBihrQBg6-16" value="Array Convertor" style="rounded=1;whiteSpace=wrap;html=1;fillColor=#fff2cc;strokeColor=#d6b656;" parent="1" vertex="1"><mxGeometry x="440" y="106" width="260" height="30" as="geometry"/></mxCell><mxCell id="_86zWBjJLlqJBihrQBg6-17" value="Image Decoder" style="rounded=1;whiteSpace=wrap;html=1;fillColor=#fff2cc;strokeColor=#d6b656;" parent="1" vertex="1"><mxGeometry x="440" y="288" width="260" height="30" as="geometry"/></mxCell><mxCell id="_86zWBjJLlqJBihrQBg6-18" value="" style="shape=flexArrow;endArrow=classic;html=1;rounded=0;" parent="1" edge="1"><mxGeometry width="50" height="50" relative="1" as="geometry"><mxPoint x="584" y="431" as="sourcePoint"/><mxPoint x="584" y="381" as="targetPoint"/></mxGeometry></mxCell><mxCell id="_86zWBjJLlqJBihrQBg6-21" value="Rest" style="edgeLabel;html=1;align=center;verticalAlign=middle;resizable=0;points=[];" parent="_86zWBjJLlqJBihrQBg6-18" vertex="1" connectable="0"><mxGeometry x="-0.24" y="-2" relative="1" as="geometry"><mxPoint y="39" as="offset"/></mxGeometry></mxCell><mxCell id="_86zWBjJLlqJBihrQBg6-19" value="" style="shape=flexArrow;endArrow=classic;html=1;rounded=0;" parent="1" edge="1"><mxGeometry width="50" height="50" relative="1" as="geometry"><mxPoint x="584" y="96" as="sourcePoint"/><mxPoint x="584" y="46" as="targetPoint"/></mxGeometry></mxCell><mxCell id="_86zWBjJLlqJBihrQBg6-20" value="Rest" style="edgeLabel;html=1;align=center;verticalAlign=middle;resizable=0;points=[];" parent="_86zWBjJLlqJBihrQBg6-19" vertex="1" connectable="0"><mxGeometry x="0.04" y="-3" relative="1" as="geometry"><mxPoint as="offset"/></mxGeometry></mxCell><mxCell id="17" value="Azure Container Registry" style="shape=cylinder3;whiteSpace=wrap;html=1;boundedLbl=1;backgroundOutline=1;size=15;" parent="1" vertex="1"><mxGeometry x="895" y="80" width="60" height="80" as="geometry"/></mxCell><mxCell id="BqRsmMDiqOokHkiWsKRs-18" value="AIX" style="text;html=1;strokeColor=none;fillColor=none;align=center;verticalAlign=middle;whiteSpace=wrap;rounded=0;" parent="1" vertex="1"><mxGeometry x="395" y="-49" width="60" height="30" as="geometry"/></mxCell><mxCell id="BqRsmMDiqOokHkiWsKRs-19" value="Brain OS" style="text;html=1;strokeColor=none;fillColor=none;align=center;verticalAlign=middle;whiteSpace=wrap;rounded=0;" parent="1" vertex="1"><mxGeometry x="405" y="529" width="60" height="30" as="geometry"/></mxCell><mxCell id="BqRsmMDiqOokHkiWsKRs-20" value="API" style="rounded=1;whiteSpace=wrap;html=1;fillColor=#fff2cc;strokeColor=#d6b656;" parent="1" vertex="1"><mxGeometry x="440" y="332" width="260" height="30" as="geometry"/></mxCell><mxCell id="BqRsmMDiqOokHkiWsKRs-21" value="API Mapping" style="shape=note;whiteSpace=wrap;html=1;backgroundOutline=1;darkOpacity=0.05;" parent="1" vertex="1"><mxGeometry x="614" y="395" width="140" height="37" as="geometry"/></mxCell><mxCell id="BqRsmMDiqOokHkiWsKRs-22" value="Translation Layer??" style="rounded=1;whiteSpace=wrap;html=1;fillColor=#dae8fc;strokeColor=#6c8ebf;" parent="1" vertex="1"><mxGeometry x="455" y="480" width="240" height="60" as="geometry"/></mxCell></root></mxGraphModel></diagram><diagram id="POfjRyIxEULZy1pv2Ibr" name="Rules In Process"><mxGraphModel dx="971" dy="718" grid="1" gridSize="10" guides="1" tooltips="1" connect="1" arrows="1" fold="1" page="1" pageScale="1" pageWidth="1169" pageHeight="827" math="0" shadow="0"><root><mxCell id="7XqIxo2VMVw2VIhpnfHO-0"/><mxCell id="7XqIxo2VMVw2VIhpnfHO-1" parent="7XqIxo2VMVw2VIhpnfHO-0"/><mxCell id="0PrYbiPwG8l5J3YuGwp_-0" value="" style="rounded=0;whiteSpace=wrap;html=1;fillColor=#f5f5f5;fontColor=#333333;strokeColor=#666666;" parent="7XqIxo2VMVw2VIhpnfHO-1" vertex="1"><mxGeometry x="405" y="370" width="330" height="220" as="geometry"/></mxCell><mxCell id="0PrYbiPwG8l5J3YuGwp_-1" style="edgeStyle=orthogonalEdgeStyle;rounded=0;orthogonalLoop=1;jettySize=auto;html=1;entryX=0;entryY=0.5;entryDx=0;entryDy=0;entryPerimeter=0;" parent="7XqIxo2VMVw2VIhpnfHO-1" source="0PrYbiPwG8l5J3YuGwp_-2" target="0PrYbiPwG8l5J3YuGwp_-5" edge="1"><mxGeometry relative="1" as="geometry"/></mxCell><mxCell id="0PrYbiPwG8l5J3YuGwp_-2" value="Event to Primitive Converter&lt;br&gt;(Java)" style="rounded=1;whiteSpace=wrap;html=1;fillColor=#dae8fc;strokeColor=#6c8ebf;" parent="7XqIxo2VMVw2VIhpnfHO-1" vertex="1"><mxGeometry x="430" y="515" width="280" height="60" as="geometry"/></mxCell><mxCell id="0PrYbiPwG8l5J3YuGwp_-3" style="edgeStyle=orthogonalEdgeStyle;rounded=0;orthogonalLoop=1;jettySize=auto;html=1;" parent="7XqIxo2VMVw2VIhpnfHO-1" source="0PrYbiPwG8l5J3YuGwp_-4" target="0PrYbiPwG8l5J3YuGwp_-2" edge="1"><mxGeometry relative="1" as="geometry"/></mxCell><mxCell id="0PrYbiPwG8l5J3YuGwp_-4" value="BrainFeatureEvent" style="verticalLabelPosition=bottom;html=1;verticalAlign=top;align=center;strokeColor=none;fillColor=#00BEF2;shape=mxgraph.azure.queue_generic;pointerEvents=1;" parent="7XqIxo2VMVw2VIhpnfHO-1" vertex="1"><mxGeometry x="275" y="537.5" width="50" height="15" as="geometry"/></mxCell><mxCell id="0PrYbiPwG8l5J3YuGwp_-5" value="BrainFeatureEvent" style="verticalLabelPosition=bottom;html=1;verticalAlign=top;align=center;strokeColor=none;fillColor=#00BEF2;shape=mxgraph.azure.queue_generic;pointerEvents=1;" parent="7XqIxo2VMVw2VIhpnfHO-1" vertex="1"><mxGeometry x="845" y="537.5" width="50" height="15" as="geometry"/></mxCell><mxCell id="0PrYbiPwG8l5J3YuGwp_-10" value="Rule Engine" style="rounded=1;whiteSpace=wrap;html=1;fillColor=#e1d5e7;strokeColor=#9673a6;" parent="7XqIxo2VMVw2VIhpnfHO-1" vertex="1"><mxGeometry x="430" y="390" width="280" height="60" as="geometry"/></mxCell><mxCell id="0PrYbiPwG8l5J3YuGwp_-12" value="Schema Config" style="sketch=0;points=[[0,0,0],[0.25,0,0],[0.5,0,0],[0.75,0,0],[1,0,0],[0,1,0],[0.25,1,0],[0.5,1,0],[0.75,1,0],[1,1,0],[0,0.25,0],[0,0.5,0],[0,0.75,0],[1,0.25,0],[1,0.5,0],[1,0.75,0]];points=[[0,0,0],[0.25,0,0],[0.5,0,0],[0.75,0,0],[1,0,0],[0,1,0],[0.25,1,0],[0.5,1,0],[0.75,1,0],[1,1,0],[0,0.25,0],[0,0.5,0],[0,0.75,0],[1,0.25,0],[1,0.5,0],[1,0.75,0]];outlineConnect=0;fontColor=#232F3E;gradientColor=#F34482;gradientDirection=north;fillColor=#BC1356;strokeColor=#ffffff;dashed=0;verticalLabelPosition=bottom;verticalAlign=top;align=center;html=1;fontSize=12;fontStyle=0;aspect=fixed;shape=mxgraph.aws4.resourceIcon;resIcon=mxgraph.aws4.app_config;" parent="7XqIxo2VMVw2VIhpnfHO-1" vertex="1"><mxGeometry x="536" y="670" width="78" height="78" as="geometry"/></mxCell><mxCell id="0PrYbiPwG8l5J3YuGwp_-13" value="" style="shape=flexArrow;endArrow=classic;html=1;rounded=0;" parent="7XqIxo2VMVw2VIhpnfHO-1" edge="1"><mxGeometry width="50" height="50" relative="1" as="geometry"><mxPoint x="580" y="665" as="sourcePoint"/><mxPoint x="580" y="595" as="targetPoint"/></mxGeometry></mxCell><mxCell id="0PrYbiPwG8l5J3YuGwp_-18" value="" style="shape=flexArrow;endArrow=classic;html=1;rounded=0;" parent="7XqIxo2VMVw2VIhpnfHO-1" edge="1"><mxGeometry width="50" height="50" relative="1" as="geometry"><mxPoint x="579" y="505" as="sourcePoint"/><mxPoint x="579" y="455" as="targetPoint"/></mxGeometry></mxCell><mxCell id="0PrYbiPwG8l5J3YuGwp_-19" value="grpc" style="edgeLabel;html=1;align=center;verticalAlign=middle;resizable=0;points=[];" parent="0PrYbiPwG8l5J3YuGwp_-18" vertex="1" connectable="0"><mxGeometry x="0.04" y="-3" relative="1" as="geometry"><mxPoint as="offset"/></mxGeometry></mxCell><mxCell id="LHhq15kiUCPLGNuwwc2B-0" value="Model Repository" style="shape=cylinder3;whiteSpace=wrap;html=1;boundedLbl=1;backgroundOutline=1;size=15;fillColor=#f8cecc;strokeColor=#b85450;" parent="7XqIxo2VMVw2VIhpnfHO-1" vertex="1"><mxGeometry x="545" y="210" width="60" height="80" as="geometry"/></mxCell><mxCell id="LHhq15kiUCPLGNuwwc2B-1" value="" style="shape=flexArrow;endArrow=classic;html=1;rounded=0;" parent="7XqIxo2VMVw2VIhpnfHO-1" edge="1"><mxGeometry width="50" height="50" relative="1" as="geometry"><mxPoint x="575" y="305" as="sourcePoint"/><mxPoint x="575" y="355" as="targetPoint"/></mxGeometry></mxCell><mxCell id="LHhq15kiUCPLGNuwwc2B-2" value="Rest" style="edgeLabel;html=1;align=center;verticalAlign=middle;resizable=0;points=[];" parent="LHhq15kiUCPLGNuwwc2B-1" vertex="1" connectable="0"><mxGeometry x="0.04" y="-3" relative="1" as="geometry"><mxPoint as="offset"/></mxGeometry></mxCell><mxCell id="GsMzVTGUkSejpxuyA2g--0" value="&lt;h1&gt;Model Repository&lt;/h1&gt;&lt;p&gt;Meta data&lt;/p&gt;&lt;p&gt;API ID&lt;/p&gt;&lt;p&gt;Model File - blob&lt;/p&gt;&lt;p&gt;Container Registry&lt;/p&gt;" style="text;html=1;strokeColor=none;fillColor=none;spacing=5;spacingTop=-20;whiteSpace=wrap;overflow=hidden;rounded=0;" parent="7XqIxo2VMVw2VIhpnfHO-1" vertex="1"><mxGeometry x="810" y="190" width="200" height="210" as="geometry"/></mxCell><mxCell id="is2GIJB-fPPLhicBlgTr-0" value="&lt;h1&gt;Process&lt;/h1&gt;&lt;p&gt;1. init - all schema - all quantities, expression&lt;/p&gt;&lt;p&gt;2. evaluation&lt;/p&gt;&lt;p&gt;3. Expression Creater - reuse&lt;/p&gt;" style="text;html=1;strokeColor=none;fillColor=none;spacing=5;spacingTop=-20;whiteSpace=wrap;overflow=hidden;rounded=0;" vertex="1" parent="7XqIxo2VMVw2VIhpnfHO-1"><mxGeometry x="70" y="30" width="190" height="200" as="geometry"/></mxCell></root></mxGraphModel></diagram><diagram id="O5_boVwq-IsKR6I_L01H" name="Integration"><mxGraphModel dx="2404" dy="746" grid="1" gridSize="10" guides="1" tooltips="1" connect="1" arrows="1" fold="1" page="1" pageScale="1" pageWidth="1169" pageHeight="827" math="0" shadow="0"><root><mxCell id="6YNXqNaf5J8J-KidiC3n-0"/><mxCell id="6YNXqNaf5J8J-KidiC3n-1" parent="6YNXqNaf5J8J-KidiC3n-0"/><mxCell id="UGwZPqtYOgmjT9-6aZ6n-0" value="" style="rounded=0;whiteSpace=wrap;html=1;fillColor=#f5f5f5;fontColor=#333333;strokeColor=#666666;" parent="6YNXqNaf5J8J-KidiC3n-1" vertex="1"><mxGeometry x="160" y="40" width="330" height="540" as="geometry"/></mxCell><mxCell id="UGwZPqtYOgmjT9-6aZ6n-1" style="edgeStyle=orthogonalEdgeStyle;rounded=0;orthogonalLoop=1;jettySize=auto;html=1;entryX=0;entryY=0.5;entryDx=0;entryDy=0;entryPerimeter=0;" parent="6YNXqNaf5J8J-KidiC3n-1" source="UGwZPqtYOgmjT9-6aZ6n-2" target="UGwZPqtYOgmjT9-6aZ6n-5" edge="1"><mxGeometry relative="1" as="geometry"/></mxCell><mxCell id="UGwZPqtYOgmjT9-6aZ6n-2" value="Bridge Container&lt;br&gt;(Java)" style="rounded=1;whiteSpace=wrap;html=1;fillColor=#dae8fc;strokeColor=#6c8ebf;" parent="6YNXqNaf5J8J-KidiC3n-1" vertex="1"><mxGeometry x="210" y="505" width="240" height="60" as="geometry"/></mxCell><mxCell id="UGwZPqtYOgmjT9-6aZ6n-3" style="edgeStyle=orthogonalEdgeStyle;rounded=0;orthogonalLoop=1;jettySize=auto;html=1;" parent="6YNXqNaf5J8J-KidiC3n-1" source="UGwZPqtYOgmjT9-6aZ6n-4" target="UGwZPqtYOgmjT9-6aZ6n-2" edge="1"><mxGeometry relative="1" as="geometry"/></mxCell><mxCell id="UGwZPqtYOgmjT9-6aZ6n-4" value="BrainMultivariateEvent" style="verticalLabelPosition=bottom;html=1;verticalAlign=top;align=center;strokeColor=none;fillColor=#00BEF2;shape=mxgraph.azure.queue_generic;pointerEvents=1;" parent="6YNXqNaf5J8J-KidiC3n-1" vertex="1"><mxGeometry x="30" y="527.5" width="50" height="15" as="geometry"/></mxCell><mxCell id="UGwZPqtYOgmjT9-6aZ6n-5" value="BrainClassificationEvent" style="verticalLabelPosition=bottom;html=1;verticalAlign=top;align=center;strokeColor=none;fillColor=#00BEF2;shape=mxgraph.azure.queue_generic;pointerEvents=1;" parent="6YNXqNaf5J8J-KidiC3n-1" vertex="1"><mxGeometry x="600" y="527.5" width="50" height="15" as="geometry"/></mxCell><mxCell id="UGwZPqtYOgmjT9-6aZ6n-6" value="Schema Config" style="sketch=0;points=[[0,0,0],[0.25,0,0],[0.5,0,0],[0.75,0,0],[1,0,0],[0,1,0],[0.25,1,0],[0.5,1,0],[0.75,1,0],[1,1,0],[0,0.25,0],[0,0.5,0],[0,0.75,0],[1,0.25,0],[1,0.5,0],[1,0.75,0]];points=[[0,0,0],[0.25,0,0],[0.5,0,0],[0.75,0,0],[1,0,0],[0,1,0],[0.25,1,0],[0.5,1,0],[0.75,1,0],[1,1,0],[0,0.25,0],[0,0.5,0],[0,0.75,0],[1,0.25,0],[1,0.5,0],[1,0.75,0]];outlineConnect=0;fontColor=#232F3E;gradientColor=#F34482;gradientDirection=north;fillColor=#BC1356;strokeColor=#ffffff;dashed=0;verticalLabelPosition=bottom;verticalAlign=top;align=center;html=1;fontSize=12;fontStyle=0;aspect=fixed;shape=mxgraph.aws4.resourceIcon;resIcon=mxgraph.aws4.app_config;" parent="6YNXqNaf5J8J-KidiC3n-1" vertex="1"><mxGeometry x="291" y="660" width="78" height="78" as="geometry"/></mxCell><mxCell id="UGwZPqtYOgmjT9-6aZ6n-7" value="" style="shape=flexArrow;endArrow=classic;html=1;rounded=0;" parent="6YNXqNaf5J8J-KidiC3n-1" edge="1"><mxGeometry width="50" height="50" relative="1" as="geometry"><mxPoint x="335" y="655" as="sourcePoint"/><mxPoint x="335" y="585" as="targetPoint"/></mxGeometry></mxCell><mxCell id="UGwZPqtYOgmjT9-6aZ6n-8" value="" style="shape=flexArrow;endArrow=classic;html=1;rounded=0;" parent="6YNXqNaf5J8J-KidiC3n-1" edge="1"><mxGeometry width="50" height="50" relative="1" as="geometry"><mxPoint x="329.5" y="493" as="sourcePoint"/><mxPoint x="329.5" y="443" as="targetPoint"/></mxGeometry></mxCell><mxCell id="UGwZPqtYOgmjT9-6aZ6n-9" value="Rest" style="edgeLabel;html=1;align=center;verticalAlign=middle;resizable=0;points=[];" parent="UGwZPqtYOgmjT9-6aZ6n-8" vertex="1" connectable="0"><mxGeometry x="-0.24" y="-2" relative="1" as="geometry"><mxPoint as="offset"/></mxGeometry></mxCell><mxCell id="UGwZPqtYOgmjT9-6aZ6n-10" value="Pod" style="text;html=1;strokeColor=none;fillColor=none;align=center;verticalAlign=middle;whiteSpace=wrap;rounded=0;" parent="6YNXqNaf5J8J-KidiC3n-1" vertex="1"><mxGeometry x="165" y="50" width="60" height="30" as="geometry"/></mxCell><mxCell id="UGwZPqtYOgmjT9-6aZ6n-11" value="ML Flow Container" style="rounded=0;whiteSpace=wrap;html=1;fillColor=#ffe6cc;strokeColor=#d79b00;" parent="6YNXqNaf5J8J-KidiC3n-1" vertex="1"><mxGeometry x="170" y="80" width="310" height="360" as="geometry"/></mxCell><mxCell id="UGwZPqtYOgmjT9-6aZ6n-12" style="edgeStyle=orthogonalEdgeStyle;rounded=0;orthogonalLoop=1;jettySize=auto;html=1;fontSize=21;" parent="6YNXqNaf5J8J-KidiC3n-1" source="UGwZPqtYOgmjT9-6aZ6n-13" target="UGwZPqtYOgmjT9-6aZ6n-11" edge="1"><mxGeometry relative="1" as="geometry"/></mxCell><mxCell id="UGwZPqtYOgmjT9-6aZ6n-13" value="" style="strokeColor=#dddddd;shadow=1;strokeWidth=1;rounded=1;absoluteArcSize=1;arcSize=2;fontSize=21;" parent="6YNXqNaf5J8J-KidiC3n-1" vertex="1"><mxGeometry x="580" y="230" width="120" height="60" as="geometry"/></mxCell><mxCell id="UGwZPqtYOgmjT9-6aZ6n-14" value="Container&#10;Registry" style="sketch=0;dashed=0;connectable=0;html=1;fillColor=#5184F3;strokeColor=none;shape=mxgraph.gcp2.hexIcon;prIcon=container_registry;part=1;labelPosition=right;verticalLabelPosition=middle;align=left;verticalAlign=middle;spacingLeft=5;fontColor=#999999;fontSize=12;" parent="UGwZPqtYOgmjT9-6aZ6n-13" vertex="1"><mxGeometry y="0.5" width="44" height="39" relative="1" as="geometry"><mxPoint x="4" y="-19" as="offset"/></mxGeometry></mxCell></root></mxGraphModel></diagram><diagram id="jkJnKkYUWpXnWtncGfs1" name="Agriculture"><mxGraphModel dx="1235" dy="746" grid="1" gridSize="10" guides="1" tooltips="1" connect="1" arrows="1" fold="1" page="1" pageScale="1" pageWidth="1100" pageHeight="850" math="0" shadow="0"><root><mxCell id="6KFgNpuXBnWp8GuMbLCi-0"/><mxCell id="6KFgNpuXBnWp8GuMbLCi-1" parent="6KFgNpuXBnWp8GuMbLCi-0"/><mxCell id="6KFgNpuXBnWp8GuMbLCi-2" style="edgeStyle=orthogonalEdgeStyle;rounded=0;orthogonalLoop=1;jettySize=auto;html=1;entryX=0;entryY=0.5;entryDx=0;entryDy=0;entryPerimeter=0;" parent="6KFgNpuXBnWp8GuMbLCi-1" source="6KFgNpuXBnWp8GuMbLCi-3" target="6KFgNpuXBnWp8GuMbLCi-5" edge="1"><mxGeometry relative="1" as="geometry"/></mxCell><mxCell id="6KFgNpuXBnWp8GuMbLCi-3" value="Azure Content Ingestion" style="aspect=fixed;perimeter=ellipsePerimeter;html=1;align=center;shadow=0;dashed=0;spacingTop=3;image;image=img/lib/active_directory/database_server.svg;" parent="6KFgNpuXBnWp8GuMbLCi-1" vertex="1"><mxGeometry x="37.60000000000002" y="328" width="65.6" height="80" as="geometry"/></mxCell><mxCell id="6KFgNpuXBnWp8GuMbLCi-4" style="edgeStyle=orthogonalEdgeStyle;rounded=0;orthogonalLoop=1;jettySize=auto;html=1;" parent="6KFgNpuXBnWp8GuMbLCi-1" source="6KFgNpuXBnWp8GuMbLCi-5" target="6KFgNpuXBnWp8GuMbLCi-7" edge="1"><mxGeometry relative="1" as="geometry"/></mxCell><mxCell id="6KFgNpuXBnWp8GuMbLCi-5" value="BrainImageEvent" style="verticalLabelPosition=bottom;html=1;verticalAlign=top;align=center;strokeColor=none;fillColor=#00BEF2;shape=mxgraph.azure.queue_generic;pointerEvents=1;" parent="6KFgNpuXBnWp8GuMbLCi-1" vertex="1"><mxGeometry x="142.10000000000002" y="360.5" width="50" height="15" as="geometry"/></mxCell><mxCell id="6KFgNpuXBnWp8GuMbLCi-6" style="edgeStyle=orthogonalEdgeStyle;rounded=0;orthogonalLoop=1;jettySize=auto;html=1;entryX=0;entryY=0.5;entryDx=0;entryDy=0;entryPerimeter=0;" parent="6KFgNpuXBnWp8GuMbLCi-1" source="6KFgNpuXBnWp8GuMbLCi-7" target="6KFgNpuXBnWp8GuMbLCi-8" edge="1"><mxGeometry relative="1" as="geometry"/></mxCell><mxCell id="6KFgNpuXBnWp8GuMbLCi-7" value="ML Flow Bridge&lt;br&gt;(crop detection)" style="sketch=0;points=[[0,0,0],[0.25,0,0],[0.5,0,0],[0.75,0,0],[1,0,0],[0,1,0],[0.25,1,0],[0.5,1,0],[0.75,1,0],[1,1,0],[0,0.25,0],[0,0.5,0],[0,0.75,0],[1,0.25,0],[1,0.5,0],[1,0.75,0]];outlineConnect=0;fontColor=#232F3E;gradientColor=#4AB29A;gradientDirection=north;fillColor=#116D5B;strokeColor=#ffffff;dashed=0;verticalLabelPosition=bottom;verticalAlign=top;align=center;html=1;fontSize=12;fontStyle=0;aspect=fixed;shape=mxgraph.aws4.resourceIcon;resIcon=mxgraph.aws4.codeguru_2;" parent="6KFgNpuXBnWp8GuMbLCi-1" vertex="1"><mxGeometry x="228.10000000000002" y="329" width="78" height="78" as="geometry"/></mxCell><mxCell id="NyHSVeUAHtcZhh_xUqma-1" style="edgeStyle=orthogonalEdgeStyle;rounded=0;orthogonalLoop=1;jettySize=auto;html=1;entryX=0;entryY=0.5;entryDx=0;entryDy=0;" edge="1" parent="6KFgNpuXBnWp8GuMbLCi-1" source="6KFgNpuXBnWp8GuMbLCi-8" target="NyHSVeUAHtcZhh_xUqma-0"><mxGeometry relative="1" as="geometry"/></mxCell><mxCell id="6KFgNpuXBnWp8GuMbLCi-8" value="BrainClassification" style="verticalLabelPosition=bottom;html=1;verticalAlign=top;align=center;strokeColor=none;fillColor=#00BEF2;shape=mxgraph.azure.queue_generic;pointerEvents=1;" parent="6KFgNpuXBnWp8GuMbLCi-1" vertex="1"><mxGeometry x="356.1" y="360.5" width="50" height="15" as="geometry"/></mxCell><mxCell id="TgDR2E-j6QGFt6vruQZo-1" style="edgeStyle=orthogonalEdgeStyle;rounded=0;orthogonalLoop=1;jettySize=auto;html=1;entryX=0.5;entryY=0;entryDx=0;entryDy=0;entryPerimeter=0;exitX=0.5;exitY=0;exitDx=0;exitDy=0;" edge="1" parent="6KFgNpuXBnWp8GuMbLCi-1" source="NyHSVeUAHtcZhh_xUqma-0" target="TgDR2E-j6QGFt6vruQZo-0"><mxGeometry relative="1" as="geometry"/></mxCell><mxCell id="TgDR2E-j6QGFt6vruQZo-3" style="edgeStyle=orthogonalEdgeStyle;rounded=0;orthogonalLoop=1;jettySize=auto;html=1;" edge="1" parent="6KFgNpuXBnWp8GuMbLCi-1" source="NyHSVeUAHtcZhh_xUqma-0" target="TgDR2E-j6QGFt6vruQZo-2"><mxGeometry relative="1" as="geometry"/></mxCell><mxCell id="NyHSVeUAHtcZhh_xUqma-0" value="Function Post Processor" style="rounded=1;whiteSpace=wrap;html=1;" vertex="1" parent="6KFgNpuXBnWp8GuMbLCi-1"><mxGeometry x="465" y="338" width="120" height="60" as="geometry"/></mxCell><mxCell id="TgDR2E-j6QGFt6vruQZo-0" value="Schema Serrvice" style="sketch=0;points=[[0,0,0],[0.25,0,0],[0.5,0,0],[0.75,0,0],[1,0,0],[0,1,0],[0.25,1,0],[0.5,1,0],[0.75,1,0],[1,1,0],[0,0.25,0],[0,0.5,0],[0,0.75,0],[1,0.25,0],[1,0.5,0],[1,0.75,0]];points=[[0,0,0],[0.25,0,0],[0.5,0,0],[0.75,0,0],[1,0,0],[0,1,0],[0.25,1,0],[0.5,1,0],[0.75,1,0],[1,1,0],[0,0.25,0],[0,0.5,0],[0,0.75,0],[1,0.25,0],[1,0.5,0],[1,0.75,0]];outlineConnect=0;fontColor=#232F3E;gradientColor=#F34482;gradientDirection=north;fillColor=#BC1356;strokeColor=#ffffff;dashed=0;verticalLabelPosition=bottom;verticalAlign=top;align=center;html=1;fontSize=12;fontStyle=0;aspect=fixed;shape=mxgraph.aws4.resourceIcon;resIcon=mxgraph.aws4.app_config;" vertex="1" parent="6KFgNpuXBnWp8GuMbLCi-1"><mxGeometry x="640" y="30" width="78" height="78" as="geometry"/></mxCell><mxCell id="TgDR2E-j6QGFt6vruQZo-2" value="Delta Service" style="rounded=1;whiteSpace=wrap;html=1;" vertex="1" parent="6KFgNpuXBnWp8GuMbLCi-1"><mxGeometry x="670" y="338" width="120" height="60" as="geometry"/></mxCell><mxCell id="TgDR2E-j6QGFt6vruQZo-4" value="Function Resolver" style="rounded=1;whiteSpace=wrap;html=1;" vertex="1" parent="6KFgNpuXBnWp8GuMbLCi-1"><mxGeometry x="840" y="338" width="120" height="60" as="geometry"/></mxCell></root></mxGraphModel></diagram></mxfile>